<svg width="27" height="20" viewBox="0 0 27 20" fill="none" xmlns="http://www.w3.org/2000/svg">
<path d="M6.13638 19.9668V9.70054L2.90113 6.78777L0 5.17139V18.1551C0 19.1575 0.825293 19.9668 1.84096 19.9668H6.13638Z" fill="#4285F4"/>
<path d="M20.8636 19.9668H25.1591C26.1778 19.9668 27 19.1545 27 18.1551V5.17151L23.714 7.02288L20.8636 9.70056V19.9668Z" fill="#34A853"/>
<path d="M6.13633 9.7006L5.69611 5.68927L6.13633 1.85004L13.4999 7.28511L20.8636 1.85004L21.3561 5.482L20.8636 9.7006L13.4999 15.1357L6.13633 9.7006Z" fill="#EA4335"/>
<path d="M20.8636 1.84998V9.70055L27 5.17139V2.75579C27 0.515398 24.4013 -0.761788 22.5819 0.581826L20.8636 1.84998Z" fill="#FBBC04"/>
<path d="M0 5.17132L2.82224 7.25446L6.13638 9.70047V1.84991L4.41808 0.581752C2.59559 -0.761966 0 0.515324 0 2.75561V5.17121V5.17132Z" fill="#C5221F"/>
</svg>
