<svg width="28" height="28" viewBox="0 0 28 28" fill="none" xmlns="http://www.w3.org/2000/svg">
<path d="M6.42676 22.5928C6.44319 21.3391 6.94877 20.1422 7.8341 19.2612C8.71943 18.3802 9.91333 17.886 11.1575 17.8853H16.8424C18.0865 17.886 19.2804 18.3802 20.1658 19.2612C21.0511 20.1422 21.5567 21.3391 21.5731 22.5928C19.4951 24.48 16.7971 25.5244 13.9999 25.5244C11.2027 25.5244 8.50472 24.48 6.42676 22.5928ZM18.2636 10.7238C18.2636 11.5736 18.0135 12.4044 17.545 13.111C17.0765 13.8176 16.4106 14.3684 15.6316 14.6936C14.8525 15.0188 13.9952 15.1039 13.1681 14.9381C12.3411 14.7723 11.5814 14.3631 10.9851 13.7621C10.3888 13.1612 9.98273 12.3956 9.81821 11.562C9.6537 10.7285 9.73813 9.86455 10.0608 9.07939C10.3835 8.29423 10.93 7.62314 11.6312 7.15098C12.3323 6.67883 13.1567 6.42682 13.9999 6.42682C15.1307 6.42682 16.2152 6.87953 17.0148 7.68536C17.8144 8.49119 18.2636 9.58414 18.2636 10.7238Z" fill="white"/>
<path d="M24.3822 22.6109C25.768 20.9449 26.7318 18.9699 27.1922 16.853C27.6525 14.736 27.5958 12.5395 27.0269 10.4491C26.4579 8.3587 25.3934 6.43598 23.9235 4.84358C22.4535 3.25118 20.6214 2.03596 18.582 1.3007C16.5426 0.56544 14.3559 0.331785 12.207 0.619497C10.0582 0.907209 8.01023 1.70783 6.2365 2.95362C4.46278 4.19941 3.01545 5.85372 2.01693 7.77662C1.01842 9.69952 0.498106 11.8344 0.500005 14.0007C0.500734 17.1499 1.61141 20.1983 3.63714 22.6109L3.61784 22.6273C3.68539 22.7083 3.76259 22.7777 3.83206 22.8577C3.91891 22.957 4.01251 23.0506 4.10226 23.147C4.37245 23.4401 4.65036 23.7216 4.94178 23.9858C5.03056 24.0668 5.12223 24.142 5.21198 24.2192C5.52077 24.4853 5.83825 24.7379 6.1673 24.9731C6.20976 25.0021 6.24836 25.0397 6.29082 25.0696V25.058C8.55089 26.6471 11.247 27.5 14.0106 27.5C16.7742 27.5 19.4703 26.6471 21.7304 25.058V25.0696C21.7729 25.0397 21.8105 25.0021 21.8539 24.9731C22.182 24.7369 22.5005 24.4853 22.8093 24.2192C22.899 24.142 22.9907 24.0659 23.0795 23.9858C23.3709 23.7207 23.6488 23.4401 23.919 23.147C24.0087 23.0506 24.1014 22.957 24.1892 22.8577C24.2577 22.7777 24.3359 22.7083 24.4034 22.6263L24.3822 22.6109ZM14.0097 6.28728C14.8685 6.28728 15.7081 6.54174 16.4222 7.0185C17.1363 7.49525 17.6928 8.17289 18.0215 8.9657C18.3502 9.75852 18.4362 10.6309 18.2686 11.4726C18.1011 12.3142 17.6875 13.0873 17.0802 13.6941C16.4729 14.3009 15.6992 14.7141 14.8568 14.8816C14.0145 15.049 13.1414 14.963 12.3479 14.6347C11.5544 14.3063 10.8762 13.7501 10.3991 13.0366C9.92194 12.3231 9.66727 11.4842 9.66727 10.6261C9.66727 9.47537 10.1248 8.37178 10.9391 7.55809C11.7535 6.7444 12.858 6.28728 14.0097 6.28728ZM6.29661 22.6109C6.31335 21.3449 6.82826 20.1364 7.72994 19.2468C8.63163 18.3572 9.84758 17.8581 11.1147 17.8575H16.9046C18.1717 17.8581 19.3877 18.3572 20.2894 19.2468C21.191 20.1364 21.706 21.3449 21.7227 22.6109C19.6064 24.5164 16.8585 25.571 14.0097 25.571C11.1608 25.571 8.41295 24.5164 6.29661 22.6109Z" fill="#2F80ED"/>
</svg>
