<svg width="17" height="16" viewBox="0 0 17 16" fill="none" xmlns="http://www.w3.org/2000/svg">
<path d="M1.83333 16C1.83333 16 0.5 16 0.5 14.6667C0.5 13.3333 1.83333 9.33333 8.5 9.33333C15.1667 9.33333 16.5 13.3333 16.5 14.6667C16.5 16 15.1667 16 15.1667 16H1.83333ZM8.5 8C9.56087 8 10.5783 7.57857 11.3284 6.82843C12.0786 6.07828 12.5 5.06087 12.5 4C12.5 2.93913 12.0786 1.92172 11.3284 1.17157C10.5783 0.421427 9.56087 0 8.5 0C7.43913 0 6.42172 0.421427 5.67157 1.17157C4.92143 1.92172 4.5 2.93913 4.5 4C4.5 5.06087 4.92143 6.07828 5.67157 6.82843C6.42172 7.57857 7.43913 8 8.5 8Z" fill="#005CC4"/>
</svg>
